<mxfile host="app.diagrams.net" agent="Mozilla/5.0 (Windows NT 10.0; Win64; x64) AppleWebKit/537.36 (KHTML, like Gecko) Chrome/129.0.0.0 Safari/537.36 Edg/129.0.0.0" version="24.7.8">
  <diagram name="Page-1" id="FQamRQtbCovPPlWkLl-8">
    <mxGraphModel dx="1710" dy="483" grid="1" gridSize="10" guides="1" tooltips="1" connect="1" arrows="1" fold="1" page="1" pageScale="1" pageWidth="850" pageHeight="1100" math="0" shadow="0">
      <root>
        <mxCell id="0" />
        <mxCell id="1" parent="0" />
        <mxCell id="Iu5T4A_Y-ULl8Hdi1_dx-2" value="&lt;br&gt;&lt;span style=&quot;color: rgb(0, 0, 0); font-family: Helvetica; font-size: 6px; font-style: normal; font-variant-ligatures: normal; font-variant-caps: normal; font-weight: 400; letter-spacing: normal; orphans: 2; text-align: center; text-indent: 0px; text-transform: none; widows: 2; word-spacing: 0px; -webkit-text-stroke-width: 0px; white-space: normal; background-color: rgb(251, 251, 251); text-decoration-thickness: initial; text-decoration-style: initial; text-decoration-color: initial; float: none; display: inline !important;&quot;&gt;Minislot ActionPoint Offset&lt;/span&gt;&lt;div&gt;&lt;br/&gt;&lt;/div&gt;" style="endArrow=baseDash;startArrow=baseDash;html=1;rounded=0;fontSize=6;spacingTop=4;startFill=0;endFill=0;" parent="1" edge="1">
          <mxGeometry x="0.0021" width="50" height="50" relative="1" as="geometry">
            <mxPoint x="-10" y="512" as="sourcePoint" />
            <mxPoint x="100" y="512" as="targetPoint" />
            <mxPoint as="offset" />
          </mxGeometry>
        </mxCell>
        <mxCell id="EbGOq2tml0lDP4HWyABb-1" value="Static segment" style="rounded=0;whiteSpace=wrap;html=1;fillColor=#dae8fc;strokeColor=#6c8ebf;" parent="1" vertex="1">
          <mxGeometry x="79.17" y="460" width="240" height="20" as="geometry" />
        </mxCell>
        <mxCell id="EbGOq2tml0lDP4HWyABb-2" value="1" style="rounded=0;whiteSpace=wrap;html=1;fillColor=#dae8fc;strokeColor=#6c8ebf;" parent="1" vertex="1">
          <mxGeometry x="79.17" y="480" width="80" height="20" as="geometry" />
        </mxCell>
        <mxCell id="EbGOq2tml0lDP4HWyABb-5" value="Cycle" style="rounded=0;whiteSpace=wrap;html=1;fillColor=#e1d5e7;strokeColor=#9673a6;" parent="1" vertex="1">
          <mxGeometry x="79.17" y="440" width="360.83" height="20" as="geometry" />
        </mxCell>
        <mxCell id="EbGOq2tml0lDP4HWyABb-11" value="Dynamic segment" style="rounded=0;whiteSpace=wrap;html=1;fillColor=#fff2cc;strokeColor=#d6b656;" parent="1" vertex="1">
          <mxGeometry x="-10" y="460" width="400" height="20" as="geometry" />
        </mxCell>
        <mxCell id="EbGOq2tml0lDP4HWyABb-12" value="Minislot m" style="rounded=0;whiteSpace=wrap;html=1;fillColor=#fff2cc;strokeColor=#d6b656;" parent="1" vertex="1">
          <mxGeometry x="-10" y="480" width="210" height="20" as="geometry" />
        </mxCell>
        <mxCell id="EbGOq2tml0lDP4HWyABb-13" value="Minislot m + 1" style="rounded=0;whiteSpace=wrap;html=1;fillColor=#fff2cc;strokeColor=#d6b656;" parent="1" vertex="1">
          <mxGeometry x="198.34" y="480" width="161.66" height="20" as="geometry" />
        </mxCell>
        <mxCell id="EbGOq2tml0lDP4HWyABb-14" value="..." style="rounded=0;whiteSpace=wrap;html=1;fillColor=#fff2cc;strokeColor=#d6b656;" parent="1" vertex="1">
          <mxGeometry x="360" y="480" width="30" height="20" as="geometry" />
        </mxCell>
        <mxCell id="EbGOq2tml0lDP4HWyABb-15" value="Cycle" style="rounded=0;whiteSpace=wrap;html=1;fillColor=#e1d5e7;strokeColor=#9673a6;" parent="1" vertex="1">
          <mxGeometry x="-10" y="440" width="450" height="20" as="geometry" />
        </mxCell>
        <mxCell id="EbGOq2tml0lDP4HWyABb-16" value="Last valid point in time to provide Transmit operation" style="text;html=1;strokeColor=none;fillColor=none;align=center;verticalAlign=middle;whiteSpace=wrap;rounded=0;fontSize=8;" parent="1" vertex="1">
          <mxGeometry x="65" y="566" width="72.09" height="30" as="geometry" />
        </mxCell>
        <mxCell id="EbGOq2tml0lDP4HWyABb-17" value="" style="shape=flexArrow;endArrow=classic;html=1;rounded=0;fillColor=default;" parent="1" edge="1">
          <mxGeometry width="50" height="50" relative="1" as="geometry">
            <mxPoint x="100.65000000000003" y="563" as="sourcePoint" />
            <mxPoint x="100.65000000000003" y="523" as="targetPoint" />
          </mxGeometry>
        </mxCell>
        <mxCell id="EbGOq2tml0lDP4HWyABb-18" value="" style="shape=flexArrow;endArrow=classic;html=1;rounded=0;fillColor=#ffe6cc;strokeColor=#d79b00;" parent="1" edge="1">
          <mxGeometry width="50" height="50" relative="1" as="geometry">
            <mxPoint x="290.61" y="563" as="sourcePoint" />
            <mxPoint x="290.61" y="523" as="targetPoint" />
          </mxGeometry>
        </mxCell>
        <mxCell id="EbGOq2tml0lDP4HWyABb-19" value="Consume Transmit operation*" style="text;html=1;strokeColor=none;fillColor=none;align=center;verticalAlign=middle;whiteSpace=wrap;rounded=0;fontSize=8;" parent="1" vertex="1">
          <mxGeometry x="264.35" y="557" width="122.65" height="30" as="geometry" />
        </mxCell>
        <mxCell id="EbGOq2tml0lDP4HWyABb-20" value="..." style="rounded=0;whiteSpace=wrap;html=1;fillColor=#d5e8d4;strokeColor=#82b366;spacingLeft=0;" parent="1" vertex="1">
          <mxGeometry x="391" y="461" width="49" height="39" as="geometry" />
        </mxCell>
        <mxCell id="Iu5T4A_Y-ULl8Hdi1_dx-4" value="Transmission&lt;br&gt;Time" style="endArrow=baseDash;startArrow=baseDash;html=1;rounded=0;fontSize=6;spacingTop=-2;startFill=0;endFill=0;exitX=0.5;exitY=1;exitDx=0;exitDy=0;" parent="1" edge="1">
          <mxGeometry width="50" height="50" relative="1" as="geometry">
            <mxPoint x="101.695" y="512" as="sourcePoint" />
            <mxPoint x="291" y="512" as="targetPoint" />
          </mxGeometry>
        </mxCell>
        <mxCell id="Iu5T4A_Y-ULl8Hdi1_dx-5" value="" style="verticalLabelPosition=bottom;verticalAlign=top;html=1;shape=mxgraph.basic.x;fillColor=#ffe6cc;strokeColor=#d79b00;" parent="1" vertex="1">
          <mxGeometry x="288" y="497" width="5" height="5" as="geometry" />
        </mxCell>
        <mxCell id="92ViWbQW8opbl-_su2DC-1" value="First valid point in time to provide Transmit operation" style="text;html=1;strokeColor=none;fillColor=none;align=center;verticalAlign=middle;whiteSpace=wrap;rounded=0;fontSize=8;" parent="1" vertex="1">
          <mxGeometry x="-45" y="566" width="72.09" height="30" as="geometry" />
        </mxCell>
        <mxCell id="92ViWbQW8opbl-_su2DC-2" value="" style="shape=flexArrow;endArrow=classic;html=1;rounded=0;fillColor=default;" parent="1" edge="1">
          <mxGeometry width="50" height="50" relative="1" as="geometry">
            <mxPoint x="-9.349999999999966" y="563" as="sourcePoint" />
            <mxPoint x="-9.349999999999966" y="523" as="targetPoint" />
          </mxGeometry>
        </mxCell>
        <mxCell id="92ViWbQW8opbl-_su2DC-3" value="" style="verticalLabelPosition=bottom;verticalAlign=top;html=1;shape=mxgraph.basic.x;fillColor=#e51400;fontColor=#ffffff;strokeColor=#B20000;" parent="1" vertex="1">
          <mxGeometry x="98" y="497" width="5" height="5" as="geometry" />
        </mxCell>
        <mxCell id="92ViWbQW8opbl-_su2DC-4" value="" style="verticalLabelPosition=bottom;verticalAlign=top;html=1;shape=mxgraph.basic.x;fillColor=#e51400;fontColor=#ffffff;strokeColor=#B20000;" parent="1" vertex="1">
          <mxGeometry x="-12" y="497" width="5" height="5" as="geometry" />
        </mxCell>
        <mxCell id="4myw0FARVqcL0h5x4K7X-1" value="*) Depending on&amp;nbsp;&lt;i style=&quot;font-size: 6px;&quot;&gt;org.fmi_standard.fmi_ls_bus.FlexRay_DeliveryOnBoundary&lt;/i&gt; parameter" style="text;html=1;align=left;verticalAlign=middle;whiteSpace=wrap;rounded=0;fontSize=6;" parent="1" vertex="1">
          <mxGeometry x="-41" y="601" width="321" height="10" as="geometry" />
        </mxCell>
        <mxCell id="4myw0FARVqcL0h5x4K7X-2" value="" style="verticalLabelPosition=bottom;verticalAlign=top;html=1;shape=mxgraph.basic.x;fillColor=#d5e8d4;strokeColor=#82b366;" parent="1" vertex="1">
          <mxGeometry x="357.4" y="497" width="5" height="5" as="geometry" />
        </mxCell>
        <mxCell id="4myw0FARVqcL0h5x4K7X-3" value="" style="shape=flexArrow;endArrow=classic;html=1;rounded=0;fillColor=#d5e8d4;strokeColor=#82b366;" parent="1" edge="1">
          <mxGeometry width="50" height="50" relative="1" as="geometry">
            <mxPoint x="360.03000000000003" y="563" as="sourcePoint" />
            <mxPoint x="360.03000000000003" y="523" as="targetPoint" />
          </mxGeometry>
        </mxCell>
      </root>
    </mxGraphModel>
  </diagram>
</mxfile>
